<svg width="572.3" height="74.601" viewBox="0 0 572.3 74.601" xmlns="http://www.w3.org/2000/svg">
	<g id="svgGroup" stroke-linecap="round" fill-rule="evenodd" font-size="9pt" stroke="#000" stroke-width="0.25mm" fill="black" style="stroke:#000;stroke-width:0.25mm;fill:black">
		<path d="M 137.6 73.6 L 137.6 27.7 L 148.4 27.7 L 148.4 36 Q 150.6 31.3 154.85 28.9 Q 159.1 26.5 164.6 26.5 Q 171.014 26.552 174.845 28.861 A 10.975 10.975 0 0 1 179.7 35 A 15.151 15.151 0 0 1 184.727 29.719 A 18.947 18.947 0 0 1 186.3 28.8 Q 190.7 26.5 195.6 26.5 Q 202.8 26.5 206.5 29.25 A 12.76 12.76 0 0 1 210.841 35.093 A 16.847 16.847 0 0 1 211.45 37.05 A 34.592 34.592 0 0 1 212.109 40.543 Q 212.7 44.756 212.7 50.6 L 212.7 73.6 L 201.8 73.6 L 201.8 50.5 Q 201.8 44.175 200.794 40.655 A 11.603 11.603 0 0 0 200.15 38.9 A 5.746 5.746 0 0 0 196.021 35.633 A 9.889 9.889 0 0 0 193.8 35.4 A 14.823 14.823 0 0 0 189.87 35.891 A 10.317 10.317 0 0 0 184.25 39.65 A 15.071 15.071 0 0 0 181.644 45.18 Q 181.101 47.329 181.016 49.853 A 28.152 28.152 0 0 0 181 50.8 L 181 73.6 L 170.2 73.6 L 170.2 48.9 Q 170.2 43.6 169.8 41 A 7.356 7.356 0 0 0 169.182 38.936 A 5.969 5.969 0 0 0 167.6 36.9 A 5.373 5.373 0 0 0 165.982 36.001 Q 164.331 35.4 161.8 35.4 A 11.288 11.288 0 0 0 155.441 37.371 A 13.677 13.677 0 0 0 155.25 37.5 A 15.028 15.028 0 0 0 150.831 42.285 A 17.877 17.877 0 0 0 150.35 43.15 Q 148.5 46.7 148.5 50.8 L 148.5 73.6 L 137.6 73.6 Z M 35.2 0 L 36.3 0 L 71.7 73.6 L 58.8 73.6 L 52.5 59.2 L 18.8 59.2 L 12.5 73.6 L 0 73.6 L 35.2 0 Z M 113.2 36.2 L 112.7 28.4 L 112.7 0.1 L 123.3 0.1 L 123.3 73.6 L 113 73.6 L 112.8 65.5 Q 111.313 68.65 107.681 71.149 A 23.759 23.759 0 0 1 106.6 71.85 Q 102.1 74.6 96.5 74.6 Q 90.3 74.6 85.05 71.65 Q 79.8 68.7 76.65 63.25 A 23.297 23.297 0 0 1 73.808 54.882 A 30.225 30.225 0 0 1 73.5 50.5 A 31.589 31.589 0 0 1 74.34 43.009 A 21.957 21.957 0 0 1 79.6 33.05 A 20.183 20.183 0 0 1 91.608 26.836 A 28.871 28.871 0 0 1 96.1 26.5 Q 101.9 26.5 106.7 29.35 A 19.807 19.807 0 0 1 109.85 31.636 Q 112.134 33.692 113.2 36.2 Z M 253.5 73.6 L 253.5 27.7 L 264.1 27.7 L 264.2 36.1 A 16.004 16.004 0 0 1 269.696 29.543 A 19.203 19.203 0 0 1 270.2 29.2 A 16.379 16.379 0 0 1 277.542 26.62 A 20.751 20.751 0 0 1 279.8 26.5 A 27.461 27.461 0 0 1 283.915 26.788 Q 286.067 27.115 287.803 27.812 A 11.961 11.961 0 0 1 290.7 29.45 A 13.727 13.727 0 0 1 295.112 35.494 A 18.098 18.098 0 0 1 295.8 37.7 A 38.052 38.052 0 0 1 296.54 41.722 Q 297.1 45.922 297.1 51.5 L 297.1 73.6 L 286.3 73.6 L 286.3 51.8 Q 286.3 44.929 285.24 41.083 A 13.304 13.304 0 0 0 284.6 39.25 Q 282.915 35.433 277.69 35.4 A 14.461 14.461 0 0 0 277.6 35.4 A 10.662 10.662 0 0 0 273.835 36.114 A 14.518 14.518 0 0 0 271.5 37.25 Q 268.4 39.1 266.35 42.6 A 14.833 14.833 0 0 0 264.5 47.98 A 19.238 19.238 0 0 0 264.3 50.8 L 264.3 73.6 L 253.5 73.6 Z M 450 73.6 L 450 27.7 L 460.6 27.7 L 460.7 36.1 A 16.004 16.004 0 0 1 466.196 29.543 A 19.203 19.203 0 0 1 466.7 29.2 A 16.379 16.379 0 0 1 474.042 26.62 A 20.751 20.751 0 0 1 476.3 26.5 A 27.461 27.461 0 0 1 480.415 26.788 Q 482.567 27.115 484.303 27.812 A 11.961 11.961 0 0 1 487.2 29.45 A 13.727 13.727 0 0 1 491.612 35.494 A 18.098 18.098 0 0 1 492.3 37.7 A 38.052 38.052 0 0 1 493.04 41.722 Q 493.6 45.922 493.6 51.5 L 493.6 73.6 L 482.8 73.6 L 482.8 51.8 Q 482.8 44.929 481.74 41.083 A 13.304 13.304 0 0 0 481.1 39.25 Q 479.415 35.433 474.19 35.4 A 14.461 14.461 0 0 0 474.1 35.4 A 10.662 10.662 0 0 0 470.335 36.114 A 14.518 14.518 0 0 0 468 37.25 Q 464.9 39.1 462.85 42.6 A 14.833 14.833 0 0 0 461 47.98 A 19.238 19.238 0 0 0 460.8 50.8 L 460.8 73.6 L 450 73.6 Z M 336.2 73.6 L 336.2 0.1 L 352.4 0.1 A 51.02 51.02 0 0 1 359.525 0.563 Q 363.183 1.08 366.114 2.176 A 19.087 19.087 0 0 1 372.45 5.95 A 19.254 19.254 0 0 1 378.378 17.03 A 27.993 27.993 0 0 1 378.8 22 A 32.366 32.366 0 0 1 378.057 29.152 Q 376.916 34.188 374.023 37.828 A 19.51 19.51 0 0 1 371.9 40.1 Q 366.399 45.123 356.64 46.141 A 50.538 50.538 0 0 1 351.4 46.4 L 347.5 46.4 L 347.5 73.6 L 336.2 73.6 Z M 549.1 54.4 L 516.1 54.4 A 22.605 22.605 0 0 0 516.991 57.861 Q 518.209 61.338 520.45 63.2 Q 523.192 65.478 527.75 65.834 A 22.488 22.488 0 0 0 529.5 65.9 Q 532.873 65.9 535.406 65.505 A 20.847 20.847 0 0 0 537.4 65.1 Q 540.5 64.3 543.1 62.9 L 546.4 70.6 A 17.224 17.224 0 0 1 544.272 71.744 Q 542.288 72.65 539.6 73.4 Q 535.3 74.6 529.2 74.6 A 34.28 34.28 0 0 1 523.206 74.104 Q 518.852 73.33 515.5 71.35 A 20.618 20.618 0 0 1 509.474 66.063 A 19.572 19.572 0 0 1 507.4 62.65 A 27.009 27.009 0 0 1 504.831 52.109 A 31.673 31.673 0 0 1 504.8 50.7 A 29.561 29.561 0 0 1 505.539 43.95 A 23.403 23.403 0 0 1 507.85 37.9 Q 510.9 32.4 516.3 29.45 A 24.256 24.256 0 0 1 525.998 26.604 A 29.655 29.655 0 0 1 528.5 26.5 A 30.481 30.481 0 0 1 534.453 27.043 Q 540.669 28.282 544.25 32.35 Q 548.698 37.403 549.304 46 A 39.833 39.833 0 0 1 549.4 48.8 A 53.285 53.285 0 0 1 549.202 53.32 A 59.851 59.851 0 0 1 549.1 54.4 Z M 425 35.4 L 425.2 27.7 L 435.5 27.7 L 435.5 73.6 L 425.3 73.6 L 425.1 65.5 Q 423.613 68.65 419.981 71.149 A 23.759 23.759 0 0 1 418.9 71.85 Q 414.4 74.6 408.8 74.6 Q 402.6 74.6 397.35 71.65 Q 392.1 68.7 388.95 63.25 A 23.297 23.297 0 0 1 386.108 54.882 A 30.225 30.225 0 0 1 385.8 50.5 A 31.941 31.941 0 0 1 386.404 44.146 A 24.358 24.358 0 0 1 388.55 37.9 Q 391.3 32.5 396.4 29.5 A 21.535 21.535 0 0 1 404.164 26.808 A 28.177 28.177 0 0 1 408.4 26.5 A 20.223 20.223 0 0 1 414.961 27.553 A 19.097 19.097 0 0 1 415.9 27.9 Q 419.4 29.3 421.8 31.35 Q 424.2 33.4 425 35.4 Z M 561.6 73.6 L 561.6 0.1 L 572.3 0.1 L 572.3 73.6 L 561.6 73.6 Z M 227.3 73.6 L 227.3 27.7 L 238.5 27.7 L 238.5 73.6 L 227.3 73.6 Z M 111.8 51.2 L 111.8 50.5 A 17.595 17.595 0 0 0 111.23 45.947 A 14.932 14.932 0 0 0 110 42.8 Q 108.2 39.4 105.1 37.5 Q 102 35.6 98.3 35.6 A 15.794 15.794 0 0 0 94.158 36.113 A 11.172 11.172 0 0 0 88.4 39.75 A 14.498 14.498 0 0 0 85.314 46.252 A 20.753 20.753 0 0 0 84.9 50.5 Q 84.9 57.069 88.217 61.187 A 13.583 13.583 0 0 0 88.35 61.35 A 11.177 11.177 0 0 0 94.973 65.19 A 16.933 16.933 0 0 0 98.3 65.5 A 13.539 13.539 0 0 0 103.922 64.352 A 13.17 13.17 0 0 0 107.9 61.55 A 13.322 13.322 0 0 0 111.607 53.929 A 18.589 18.589 0 0 0 111.8 51.2 Z M 424.1 51.3 L 424.1 50.6 A 17.595 17.595 0 0 0 423.53 46.047 A 14.932 14.932 0 0 0 422.3 42.9 Q 420.5 39.5 417.4 37.6 Q 414.3 35.7 410.6 35.7 A 15.794 15.794 0 0 0 406.458 36.213 A 11.172 11.172 0 0 0 400.7 39.85 A 14.498 14.498 0 0 0 397.614 46.352 A 20.753 20.753 0 0 0 397.2 50.6 Q 397.2 57.169 400.517 61.287 A 13.583 13.583 0 0 0 400.65 61.45 A 11.177 11.177 0 0 0 407.273 65.29 A 16.933 16.933 0 0 0 410.6 65.6 A 13.539 13.539 0 0 0 416.222 64.452 A 13.17 13.17 0 0 0 420.2 61.65 A 13.322 13.322 0 0 0 423.907 54.029 A 18.589 18.589 0 0 0 424.1 51.3 Z M 35.7 21.3 L 31.3 31.3 L 23.3 49.1 L 48.1 49.1 L 40.2 31.4 L 35.9 21.3 L 35.7 21.3 Z M 347.5 36.5 L 351.7 36.5 A 31.128 31.128 0 0 0 355.987 36.227 Q 361.426 35.468 364 32.6 Q 367.5 28.7 367.5 23.2 A 16.736 16.736 0 0 0 366.981 18.926 A 12.417 12.417 0 0 0 364.1 13.6 A 9.923 9.923 0 0 0 360.413 11.137 Q 358.784 10.485 356.729 10.176 A 27.25 27.25 0 0 0 352.7 9.9 L 347.5 9.9 L 347.5 36.5 Z M 516.1 46.9 L 538.9 46.9 A 26.245 26.245 0 0 0 538.903 46.477 Q 538.903 43.092 538.003 40.841 A 7.169 7.169 0 0 0 536.2 38.15 A 9.102 9.102 0 0 0 532.682 36.201 Q 531.336 35.788 529.722 35.659 A 19.102 19.102 0 0 0 528.2 35.6 A 14.256 14.256 0 0 0 523.258 36.394 Q 519.052 37.942 517.222 42.507 A 18.937 18.937 0 0 0 516.1 46.9 Z M 232.8 19.1 Q 229.7 19.1 227.6 17 A 7.046 7.046 0 0 1 225.501 11.897 A 9.082 9.082 0 0 1 225.5 11.8 A 6.366 6.366 0 0 1 227.463 7.134 A 8.16 8.16 0 0 1 227.6 7 Q 229.7 5 232.8 5 Q 235.8 5 237.9 7 Q 240 9 240 11.8 A 7.722 7.722 0 0 1 239.503 14.609 A 7.034 7.034 0 0 1 237.95 17 A 6.862 6.862 0 0 1 232.993 19.098 A 9.009 9.009 0 0 1 232.8 19.1 Z" vector-effect="non-scaling-stroke"/>
	</g>
</svg>